<svg width="28" height="28" viewBox="0 0 28 28" fill="none" xmlns="http://www.w3.org/2000/svg">
<path d="M12.953 26.14C19.493 26.14 24.906 20.715 24.906 14.187C24.906 13.145 24.766 12.137 24.484 11.176C23.8794 11.4526 23.2264 11.6079 22.562 11.633C22.785 12.441 22.914 13.309 22.914 14.188C22.92 15.4976 22.6664 16.7955 22.168 18.0066C21.6695 19.2177 20.9361 20.318 20.0101 21.2441C19.084 22.1701 17.9837 22.9035 16.7726 23.402C15.5615 23.9004 14.2636 24.154 12.954 24.148C11.6451 24.1529 10.3483 23.8985 9.1382 23.3996C7.92814 22.9007 6.82887 22.1671 5.90382 21.2411C4.97877 20.3151 4.24625 19.2151 3.74854 18.0046C3.25083 16.794 2.99779 15.4969 3.004 14.188C3.004 8.656 7.41 4.227 12.941 4.227C14.231 4.227 15.449 4.461 16.574 4.907C16.691 4.238 16.937 3.617 17.277 3.067C15.941 2.527 14.477 2.234 12.941 2.234C6.414 2.234 1 7.648 1 14.188C1 20.715 6.426 26.14 12.953 26.14ZM22.082 10.121C24.297 10.121 26.148 8.293 26.148 6.066C26.148 3.828 24.297 2 22.082 2C19.855 2 18.016 3.828 18.016 6.066C18.016 8.293 19.856 10.121 22.082 10.121Z" fill="black"/>
<path d="M13.7619 14.633C13.7619 15.102 13.3979 15.453 12.9419 15.453C12.8341 15.4544 12.727 15.434 12.6273 15.393C12.5275 15.3519 12.4371 15.2911 12.3614 15.2143C12.2858 15.1374 12.2264 15.046 12.187 14.9456C12.1475 14.8452 12.1288 14.7378 12.1319 14.63V6.73403C12.1319 6.27703 12.4839 5.92603 12.9419 5.92603C13.3979 5.92603 13.7619 6.27703 13.7619 6.73403V14.633Z" fill="black"/>
<path d="M12.9409 15.453H6.82389C6.7155 15.4556 6.6077 15.4361 6.50704 15.3959C6.40637 15.3556 6.31494 15.2953 6.23827 15.2186C6.1616 15.1419 6.10129 15.0505 6.06101 14.9498C6.02072 14.8492 6.00129 14.7414 6.00389 14.633C6.00389 14.176 6.35489 13.824 6.82389 13.824H12.9399C13.3999 13.824 13.7619 14.164 13.7619 14.633C13.7619 15.102 13.3979 15.453 12.9419 15.453H12.9409Z" fill="black"/>
</svg>
