<svg width="28" height="28" viewBox="0 0 28 28" fill="none" xmlns="http://www.w3.org/2000/svg">
<path d="M5.67969 24.5977H21.6875C24.1367 24.5977 25.3555 23.3789 25.3555 20.9648V6.65625C25.3555 4.24219 24.1367 3.02344 21.6875 3.02344H5.67969C3.23047 3.02344 2 4.23047 2 6.65625V20.9648C2 23.3906 3.23047 24.5977 5.67969 24.5977ZM5.50391 22.7109C4.46094 22.7109 3.88672 22.1602 3.88672 21.0703V10.0195C3.88672 8.94141 4.46094 8.37891 5.50391 8.37891H21.8398C22.8828 8.37891 23.4688 8.94141 23.4688 10.0195V21.0703C23.4688 22.1602 22.8828 22.7109 21.8398 22.7109H5.50391Z" fill="black"/>
<path d="M13.8477 20.7071C14.4571 20.7071 14.8907 20.2852 14.8907 19.6641V15.7071L14.8203 13.293L17.9258 16.6094C18.125 16.8203 18.3946 16.9024 18.6758 16.9024C19.2618 16.9024 19.6953 16.4571 19.6953 15.8828C19.6953 15.5899 19.5782 15.3321 19.3438 15.086L14.6329 10.3633C14.4102 10.1289 14.1289 10 13.8477 10C13.5547 10 13.2852 10.1289 13.0625 10.3633L8.35156 15.086C8.11718 15.3321 8 15.5899 8 15.8828C8 16.4571 8.43359 16.9024 9.01953 16.9024C9.30078 16.9024 9.57031 16.8203 9.76953 16.6094L12.875 13.293L12.793 15.7071V19.6641C12.793 20.2852 13.2383 20.7071 13.8477 20.7071Z" fill="black"/>
</svg>
