<svg width="28" height="28" viewBox="0 0 28 28" fill="none" xmlns="http://www.w3.org/2000/svg">
<path d="M8.11002 25.563H20.426C22.629 25.563 23.848 24.403 23.848 22.188V13.305H4.67603V22.188C4.67603 24.402 5.89602 25.563 8.11002 25.563ZM13.219 23.805H8.08603C7.11303 23.805 6.56203 23.254 6.56203 22.281V14.99H13.219V23.805ZM15.305 23.805V14.99H21.961V22.281C21.961 23.254 21.411 23.805 20.438 23.805H15.305Z" fill="#0066FF"/>
<path d="M23.848 14.992H23.93C24.96 14.769 25.535 13.937 25.535 12.742V9.66C25.535 8.23 24.738 7.328 23.309 7.328H20.94C21.562 6.707 21.925 5.863 21.925 4.891C21.926 2.617 20.133 1 17.859 1C16.219 1 14.859 1.902 14.262 3.473C13.664 1.903 12.316 1 10.664 1C8.402 1 6.598 2.617 6.598 4.89C6.598 5.863 6.961 6.707 7.594 7.328H5.227C3.855 7.328 3 8.23 3 9.66V12.742C3 13.937 3.563 14.769 4.594 14.992H23.848ZM13.218 13.305H5.708C5.122 13.305 4.888 13.059 4.888 12.473V9.918C4.888 9.332 5.122 9.098 5.708 9.098H13.22V13.305H13.218ZM15.305 13.305V9.098H22.84C23.426 9.098 23.648 9.332 23.648 9.918V12.473C23.648 13.059 23.426 13.305 22.84 13.305H15.305ZM13.3 7.328H11.472C9.632 7.328 8.554 6.285 8.554 4.996C8.554 3.707 9.491 2.957 10.78 2.957C12.175 2.957 13.3 4.012 13.3 5.747V7.328ZM15.222 7.328V5.746C15.222 4.012 16.347 2.957 17.742 2.957C19.03 2.957 19.968 3.707 19.968 4.997C19.968 6.285 18.901 7.328 17.05 7.328H15.222Z" fill="#0066FF"/>
</svg>