<svg width="28" height="28" viewBox="0 0 28 28" fill="none" xmlns="http://www.w3.org/2000/svg">
<path d="M3.67969 19.125H6.64453V17.2383H3.70312C2.53125 17.2383 1.88672 16.6055 1.88672 15.3868V3.73828C1.88672 2.51953 2.53125 1.88672 3.70312 1.88672H15.4102C16.5703 1.88672 17.2266 2.51953 17.2266 3.73828V6.30468H19.1133V3.63281C19.1133 1.21875 17.8828 0 15.4453 0H3.67969C1.21875 0 0 1.21875 0 3.63281V15.4922C0 17.9063 1.21875 19.125 3.67969 19.125ZM9.3398 18.1524C9.3398 17.7305 9.6797 17.3907 10.0781 17.3907H20.3672C20.8125 17.3907 21.1523 17.7305 21.1523 18.1524C21.1523 18.5977 20.8125 18.9375 20.3672 18.9375H10.0781C9.6797 18.9375 9.3398 18.5977 9.3398 18.1524ZM9.3398 11.8828C9.3398 11.461 9.6797 11.1211 10.125 11.1211H20.4141C20.8125 11.1211 21.1523 11.461 21.1523 11.8828C21.1523 12.3164 20.8125 12.668 20.4141 12.668H10.125C9.6797 12.668 9.3398 12.3164 9.3398 11.8828ZM9.3633 24.5508H21.1289C23.5664 24.5508 24.7969 23.3321 24.7969 20.918V9.05856C24.7969 6.64453 23.5664 5.42578 21.1289 5.42578H9.3633C6.90234 5.42578 5.68359 6.63281 5.68359 9.05856V20.918C5.68359 23.3321 6.90234 24.5508 9.3633 24.5508ZM9.3867 22.6641C8.2266 22.6641 7.57031 22.0313 7.57031 20.8125V9.16406C7.57031 7.94531 8.2266 7.3125 9.3867 7.3125H21.0938C22.2539 7.3125 22.9102 7.94531 22.9102 9.16406V20.8125C22.9102 22.0313 22.2539 22.6641 21.0938 22.6641H9.3867Z" fill="black"/>
<path d="M17.0859 14.2618C18.3867 14.2618 19.4531 13.1954 19.4531 11.8828C19.4531 10.5821 18.3867 9.51566 17.0859 9.51566C15.7734 9.51566 14.707 10.5821 14.707 11.8828C14.707 13.1954 15.7734 14.2618 17.0859 14.2618Z" fill="black"/>
<path d="M13.4062 20.5313C14.7305 20.5313 15.7969 19.4649 15.7969 18.1524C15.7969 16.8516 14.7305 15.7852 13.4062 15.7852C12.1055 15.7852 11.0391 16.8516 11.0391 18.1524C11.0391 19.4649 12.1055 20.5313 13.4062 20.5313Z" fill="black"/>
</svg>
